<svg xmlns="http://www.w3.org/2000/svg" width="1920" height="1080" viewBox="0 0 1920 1080">
  <defs>
    <linearGradient id="grad1" x1="0%" y1="0%" x2="100%" y2="100%">
      <stop offset="0%" style="stop-color:#0f172a;stop-opacity:1" />
      <stop offset="100%" style="stop-color:#1e293b;stop-opacity:1" />
    </linearGradient>
    <radialGradient id="grad2" cx="50%" cy="50%" r="50%" fx="50%" fy="50%">
      <stop offset="0%" style="stop-color:#3b82f6;stop-opacity:0.2" />
      <stop offset="100%" style="stop-color:#3b82f6;stop-opacity:0" />
    </radialGradient>
  </defs>
  
  <!-- Background -->
  <rect width="100%" height="100%" fill="url(#grad1)" />
  
  <!-- Glow effect -->
  <circle cx="960" cy="540" r="600" fill="url(#grad2)" />
  
  <!-- Stars -->
  <g fill="#ffffff">
    <!-- Small stars -->
    <g opacity="0.5">
      <circle cx="200" cy="300" r="1" />
      <circle cx="400" cy="200" r="1" />
      <circle cx="600" cy="400" r="1" />
      <circle cx="800" cy="100" r="1" />
      <circle cx="1000" cy="300" r="1" />
      <circle cx="1200" cy="200" r="1" />
      <circle cx="1400" cy="400" r="1" />
      <circle cx="1600" cy="100" r="1" />
      <circle cx="1800" cy="300" r="1" />
      <circle cx="300" cy="500" r="1" />
      <circle cx="500" cy="600" r="1" />
      <circle cx="700" cy="700" r="1" />
      <circle cx="900" cy="800" r="1" />
      <circle cx="1100" cy="500" r="1" />
      <circle cx="1300" cy="600" r="1" />
      <circle cx="1500" cy="700" r="1" />
      <circle cx="1700" cy="800" r="1" />
      <circle cx="250" cy="900" r="1" />
      <circle cx="450" cy="950" r="1" />
      <circle cx="650" cy="850" r="1" />
      <circle cx="850" cy="950" r="1" />
      <circle cx="1050" cy="900" r="1" />
      <circle cx="1250" cy="950" r="1" />
      <circle cx="1450" cy="850" r="1" />
      <circle cx="1650" cy="950" r="1" />
    </g>
    
    <!-- Medium stars -->
    <g opacity="0.7">
      <circle cx="300" cy="200" r="1.5" />
      <circle cx="700" cy="300" r="1.5" />
      <circle cx="1100" cy="200" r="1.5" />
      <circle cx="1500" cy="300" r="1.5" />
      <circle cx="400" cy="600" r="1.5" />
      <circle cx="800" cy="500" r="1.5" />
      <circle cx="1200" cy="600" r="1.5" />
      <circle cx="1600" cy="500" r="1.5" />
      <circle cx="350" cy="800" r="1.5" />
      <circle cx="750" cy="900" r="1.5" />
      <circle cx="1150" cy="800" r="1.5" />
      <circle cx="1550" cy="900" r="1.5" />
    </g>
    
    <!-- Large stars -->
    <g opacity="0.9">
      <circle cx="500" cy="250" r="2" />
      <circle cx="900" cy="350" r="2" />
      <circle cx="1300" cy="250" r="2" />
      <circle cx="1700" cy="350" r="2" />
      <circle cx="600" cy="650" r="2" />
      <circle cx="1000" cy="550" r="2" />
      <circle cx="1400" cy="650" r="2" />
      <circle cx="550" cy="850" r="2" />
      <circle cx="950" cy="950" r="2" />
      <circle cx="1350" cy="850" r="2" />
    </g>
  </g>
  
  <!-- Subtle patterns -->
  <g stroke="#3b82f6" stroke-width="0.5" opacity="0.1">
    <line x1="0" y1="200" x2="1920" y2="200" />
    <line x1="0" y1="400" x2="1920" y2="400" />
    <line x1="0" y1="600" x2="1920" y2="600" />
    <line x1="0" y1="800" x2="1920" y2="800" />
    <line x1="0" y1="1000" x2="1920" y2="1000" />
    
    <line x1="200" y1="0" x2="200" y2="1080" />
    <line x1="400" y1="0" x2="400" y2="1080" />
    <line x1="600" y1="0" x2="600" y2="1080" />
    <line x1="800" y1="0" x2="800" y2="1080" />
    <line x1="1000" y1="0" x2="1000" y2="1080" />
    <line x1="1200" y1="0" x2="1200" y2="1080" />
    <line x1="1400" y1="0" x2="1400" y2="1080" />
    <line x1="1600" y1="0" x2="1600" y2="1080" />
    <line x1="1800" y1="0" x2="1800" y2="1080" />
  </g>
</svg>